<svg xmlns="http://www.w3.org/2000/svg" viewBox="0 0 512 512" role="img" aria-label="dice-talk">
  <defs>
    <linearGradient id="bg" x1="92" x2="420" y1="40" y2="472" gradientUnits="userSpaceOnUse">
      <stop stop-color="#ffffff"/>
      <stop offset="1" stop-color="#edf8ff"/>
    </linearGradient>
    <radialGradient id="glow" cx="0" cy="0" r="1" gradientTransform="matrix(180 0 0 180 360 132)" gradientUnits="userSpaceOnUse">
      <stop stop-color="#c9f5ff"/>
      <stop offset="1" stop-color="#c9f5ff" stop-opacity="0"/>
    </radialGradient>
    <linearGradient id="top" x1="150" x2="362" y1="86" y2="196" gradientUnits="userSpaceOnUse">
      <stop stop-color="#f6ddff"/>
      <stop offset=".55" stop-color="#e8ceff"/>
      <stop offset="1" stop-color="#d5baff"/>
    </linearGradient>
    <linearGradient id="left" x1="118" x2="270" y1="192" y2="420" gradientUnits="userSpaceOnUse">
      <stop stop-color="#c9abff"/>
      <stop offset=".52" stop-color="#b795fb"/>
      <stop offset="1" stop-color="#9d7bec"/>
    </linearGradient>
    <linearGradient id="right" x1="270" x2="398" y1="192" y2="420" gradientUnits="userSpaceOnUse">
      <stop stop-color="#a8efff"/>
      <stop offset=".5" stop-color="#88ddfb"/>
      <stop offset="1" stop-color="#62c7ec"/>
    </linearGradient>
    <filter id="shadow" x="70" y="336" width="372" height="124" color-interpolation-filters="sRGB" filterUnits="userSpaceOnUse">
      <feGaussianBlur stdDeviation="7"/>
    </filter>
  </defs>
  <rect width="512" height="512" rx="112" fill="url(#bg)"/>
  <rect width="512" height="512" rx="112" fill="url(#glow)"/>
  <g filter="url(#shadow)" opacity=".95">
    <ellipse cx="256" cy="394" fill="#101b36" rx="150" ry="42"/>
  </g>
  <path fill="url(#top)" d="M256 70 110 154l146 84 146-84L256 70Z"/>
  <path fill="url(#left)" d="M110 154v178l146 92V238L110 154Z"/>
  <path fill="url(#right)" d="M402 154v178l-146 92V238l146-84Z"/>
  <path fill="#fff" d="m256 70 146 84-146 84-146-84L256 70Z" opacity=".22"/>
  <path fill="#fff" d="M172 150 256 102l84 48-84 48-84-48Z" opacity=".18"/>
</svg>
